<svg width="31" height="31" viewBox="0 0 31 31" fill="none" xmlns="http://www.w3.org/2000/svg">
<g id="mdi:instagram">
<path id="Vector" d="M10.075 2.58337H20.925C25.0584 2.58337 28.4167 5.94171 28.4167 10.075V20.925C28.4167 22.912 27.6274 24.8175 26.2225 26.2225C24.8175 27.6274 22.912 28.4167 20.925 28.4167H10.075C5.94171 28.4167 2.58337 25.0584 2.58337 20.925V10.075C2.58337 8.08813 3.37267 6.18259 4.77763 4.77763C6.18259 3.37267 8.08813 2.58337 10.075 2.58337ZM9.81671 5.16671C8.58345 5.16671 7.40071 5.65662 6.52866 6.52866C5.65662 7.40071 5.16671 8.58345 5.16671 9.81671V21.1834C5.16671 23.7538 7.24629 25.8334 9.81671 25.8334H21.1834C22.4166 25.8334 23.5994 25.3435 24.4714 24.4714C25.3435 23.5994 25.8334 22.4166 25.8334 21.1834V9.81671C25.8334 7.24629 23.7538 5.16671 21.1834 5.16671H9.81671ZM22.2813 7.10421C22.7095 7.10421 23.1202 7.27431 23.423 7.57711C23.7258 7.8799 23.8959 8.29058 23.8959 8.71879C23.8959 9.14701 23.7258 9.55768 23.423 9.86047C23.1202 10.1633 22.7095 10.3334 22.2813 10.3334C21.8531 10.3334 21.4424 10.1633 21.1396 9.86047C20.8368 9.55768 20.6667 9.14701 20.6667 8.71879C20.6667 8.29058 20.8368 7.8799 21.1396 7.57711C21.4424 7.27431 21.8531 7.10421 22.2813 7.10421ZM15.5 9.04171C17.2129 9.04171 18.8556 9.72214 20.0668 10.9333C21.2779 12.1445 21.9584 13.7872 21.9584 15.5C21.9584 17.2129 21.2779 18.8556 20.0668 20.0668C18.8556 21.2779 17.2129 21.9584 15.5 21.9584C13.7872 21.9584 12.1445 21.2779 10.9333 20.0668C9.72214 18.8556 9.04171 17.2129 9.04171 15.5C9.04171 13.7872 9.72214 12.1445 10.9333 10.9333C12.1445 9.72214 13.7872 9.04171 15.5 9.04171ZM15.5 11.625C14.4723 11.625 13.4867 12.0333 12.76 12.76C12.0333 13.4867 11.625 14.4723 11.625 15.5C11.625 16.5278 12.0333 17.5134 12.76 18.2401C13.4867 18.9668 14.4723 19.375 15.5 19.375C16.5278 19.375 17.5134 18.9668 18.2401 18.2401C18.9668 17.5134 19.375 16.5278 19.375 15.5C19.375 14.4723 18.9668 13.4867 18.2401 12.76C17.5134 12.0333 16.5278 11.625 15.5 11.625Z" fill="black"/>
</g>
</svg>
